<?xml version="1.0" encoding="UTF-8"?>
<svg id="Layer_1" data-name="Layer 1" xmlns="http://www.w3.org/2000/svg" viewBox="0 0 181.86 196.57">
  <path d="M3.73,93.98c7.35,3.26,14.48,7,21.32,11.24,3.3,2.04,6.53,4.2,9.69,6.47,.78,.56,1.56,1.13,2.33,1.71,.36,.27,.72,.54,1.08,.81,.2,.15,.41,.31,.61,.47,.88,.67-.62-.45-.61-.47-.04,.08,4.24,3.4,4.62,3.71,5.83,4.86,11.33,10.12,16.41,15.76,2.48,2.75,4.82,5.59,7.12,8.49-1.52-1.92-.41-.54-.06-.06,.26,.34,.51,.68,.77,1.02,.58,.78,1.16,1.57,1.72,2.36,1.06,1.48,2.08,2.98,3.08,4.5,4.49,6.82,8.39,14.03,11.58,21.55l-.76-1.79c2.91,6.89,5.21,14.02,6.83,21.32,.68,3.08,4.09,5.65,7.23,5.51s6.41-2.21,7.23-5.51c2.46-9.8,5.69-19.39,9.6-28.71l-.76,1.79c5.56-13.16,12.47-25.73,20.51-37.53,2.05-3,4.17-5.96,6.36-8.86,.29-.38,.57-.75,.86-1.13,.12-.16,.24-.33,.37-.48,.07-.08-1.05,1.35-.55,.71,.58-.75,1.17-1.5,1.76-2.24,1.14-1.44,2.3-2.86,3.48-4.27,4.75-5.69,9.78-11.16,15.04-16.39,6.05-6.01,12.42-11.7,19.05-17.05,1.4-1.13,2.2-3.58,2.2-5.3,0-1.84-.82-4.04-2.2-5.3s-3.31-2.29-5.3-2.2c-2.1,.09-3.67,.88-5.3,2.2-15.48,12.5-29.28,26.8-41.37,42.6-11.23,14.66-20.65,30.67-27.85,47.68-4.2,9.91-7.74,20.05-10.36,30.5h14.46c-3.9-17.65-11.76-34.48-22.25-49.17-11.42-16-25.6-29.66-41.75-40.85-9.01-6.24-18.62-11.59-28.64-16.03-1.91-.84-3.69-1.33-5.78-.76-1.74,.48-3.63,1.82-4.48,3.45-.92,1.74-1.38,3.85-.76,5.78,.56,1.74,1.7,3.71,3.45,4.48h0Z"/>
  <path d="M42.06,14.76c.63,.24,1.25,.49,1.87,.75l-1.79-.76c3.84,1.65,7.39,3.77,10.76,6.23,.95,.69-.58-.45-.61-.48,.2,.13,.41,.32,.59,.47,.39,.32,.78,.64,1.17,.97,.77,.65,1.52,1.33,2.25,2.02,1.46,1.38,2.85,2.83,4.17,4.33,.62,.7,1.22,1.42,1.82,2.15,.32,.39,.62,.78,.93,1.17,.56,.71-1.03-1.35-.49-.63,.19,.25,.38,.5,.56,.75,1.18,1.59,2.31,3.23,3.39,4.9,2.14,3.31,4.08,6.74,5.9,10.23,2.48,4.76,4.76,9.62,6.86,14.56l-.76-1.79c6.78,16.08,11.44,33.01,13.77,50.31l-.27-1.99c2.23,16.83,2.24,33.91-.02,50.74l.27-1.99c-.93,6.79-2.22,13.51-3.86,20.16-.94,3.8,1.22,8.31,5.24,9.23s8.22-1.16,9.23-5.24c6.57-26.5,7.45-54.02,2.98-80.93-2.14-12.86-5.57-25.5-10.22-37.68s-9.98-24.03-17.18-34.72c-3.76-5.59-8.05-10.94-13.1-15.43C59.71,6.94,53.28,3.06,46.05,.29c-1.72-.66-4.25-.14-5.78,.76s-3.04,2.69-3.45,4.48c-.44,1.92-.34,4.07,.76,5.78s2.56,2.71,4.48,3.45h0Z"/>
</svg>