<?xml version="1.0" encoding="UTF-8"?>
<svg id="Layer_1" data-name="Layer 1" xmlns="http://www.w3.org/2000/svg" viewBox="0 0 3409.45 1295.45">
  <defs>
    <style>
      .cls-1 {
        fill: #e9eff5;
      }

      .cls-2 {
        fill: #ef415a;
      }
    </style>
  </defs>
  <path class="cls-1" d="M.7,0S226.69,301.91,607.49,439.36c380.8,137.45,608.3,273.32,620.34,441.53,12.03,168.21-89.76,354.81-290.73,340.07-200.96-14.74-406.64-271.51-584.61-261.92C174.51,968.63,0,1295.31,0,1295.31"/>
  <path class="cls-1" d="M3409.45,1295.45s-226.36-300.29-606.54-436.07c-380.18-135.78-607.49-270.5-620.05-438.19-12.56-167.69,88.32-354.1,288.76-340.08,200.44,14.02,406.39,269.37,583.83,259.21,177.43-10.16,350.35-336.5,350.35-336.5"/>
  <rect class="cls-2" y="527.09" width="406.11" height="275.53"/>
  <rect class="cls-2" x="2898.02" y="527.09" width="510.64" height="275.53"/>
</svg>