<?xml version="1.0" encoding="UTF-8"?>
<svg id="Layer_1" data-name="Layer 1" xmlns="http://www.w3.org/2000/svg" viewBox="0 0 3393.26 1296.15">
  <defs>
    <style>
      .cls-1 {
        fill: #e9eff5;
      }

      .cls-2 {
        fill: none;
        stroke: #ef415a;
        stroke-miterlimit: 10;
        stroke-width: 8px;
      }
    </style>
  </defs>
  <path class="cls-1" d="M.7,0S226.69,301.91,607.49,439.36c380.8,137.45,608.3,273.32,620.34,441.53,12.03,168.21-89.76,354.81-290.73,340.07-200.96-14.74-406.64-271.51-584.61-261.92C174.51,968.63,0,1295.31,0,1295.31"/>
  <path class="cls-1" d="M3393.26,1291.63s-226.36-300.29-606.54-436.07-607.49-270.5-620.05-438.19,88.32-354.1,288.76-340.08c200.44,14.02,406.39,269.37,583.83,259.21C3216.68,326.34,3389.6,0,3389.6,0"/>
  <path class="cls-2" d="M2598.45,1291.63s94.98-33.25,104.17-70.01c9.19-36.77-131.74-122.55-67.4-39.83,64.34,82.72,150.13,67.4,186.89,42.89,9.12-6.08,18.99-17.44,27.84-30.99,26.83-41.08-64.61-100.76-27.84-36.42,36.77,64.34,156.26,36.42,156.26,36.42"/>
  <path class="cls-2" d="M385.87,1256.68s100.63,.62,121.65-30.91c21.02-31.54-82.87-159.71-50.09-60.17,32.78,99.54,118.72,113.96,161.59,103.23,10.63-2.66,23.75-10.04,36.64-19.82,39.08-29.66-26.97-116.61-13.98-43.66,12.99,72.96,134.91,86.83,134.91,86.83"/>
</svg>